<svg xmlns="http://www.w3.org/2000/svg" viewBox="0 0 1927 512.01"><defs><style>.cls-1{fill:blue;}.cls-2{fill:aqua;}.cls-3{fill:#55f;}</style></defs><g id="Layer_2" data-name="Layer 2"><g id="Layer_4" data-name="Layer 4"><path class="cls-1" d="M1926.65,512c.12-.27.23-.54.35-.82V512Z"/><path class="cls-2" d="M1920,435v77H0V88.57C81.07,33,177-1.78,263,10,496.19,42,547.72,401,739,396c186.63-4.84,250.61-349.54,417-339,172,10.9,242.62,388.09,367,372,99.84-12.92,112.42-263.48,203-271C1796.29,152.18,1867.08,296.54,1920,435Z"/><path class="cls-3" d="M1920,435v77H0V88.57C81.07,33,177-1.78,263,10,496.19,42,547.72,401,739,396c186.63-4.84,250.61-349.54,417-339,172,10.9,242.62,388.09,367,372,99.84-12.92,112.42-263.48,203-271C1796.29,152.18,1867.08,296.54,1920,435Z"/><path class="cls-1" d="M1927,279V511.19l-.18.42c0,.13-.11.27-.17.4H0V98C111.58,47.12,239.58,73.4,312,158c70,81.74-5,197.73,47,241,110.23,91.68,524.23-337.07,684-233,93.37,60.82,30.41,258.35,98,282C1247.31,485.21,1404.2-3.1,1632,0,1748.31,1.59,1877.15,131.21,1927,279Z"/></g></g></svg>