<svg xmlns="http://www.w3.org/2000/svg" xmlns:xlink="http://www.w3.org/1999/xlink" viewBox="0 0 1920 587"><defs><style>.cls-1{fill:url(#linear-gradient);}.cls-2{fill:url(#linear-gradient-2);}</style><linearGradient id="linear-gradient" x1="761.99" y1="732.61" x2="1357.45" y2="-193.47" gradientUnits="userSpaceOnUse"><stop offset="0" stop-color="#6156f9"/><stop offset="1" stop-color="#1a129f"/></linearGradient><linearGradient id="linear-gradient-2" x1="739.77" y1="789.97" x2="1346.56" y2="-153.73" xlink:href="#linear-gradient"/></defs><g id="Layer_2" data-name="Layer 2"><g id="Layer_1-2" data-name="Layer 1"><path class="cls-1" d="M1920,348.54V587H119.36L99.81,558.42,16.61,435.16s-4.55-6.38-12.93-18.5L0,411.31v-149C52.41,229.43,142.53,225.7,296.09,282q29.43,10.78,62,24.57c300.56,127.32,477.56-41.65,641.64-147C1120,82.38,1233.32,39.38,1383.26,172.3c43.47,38.54,86.29,67.66,128.17,89.85,101,53.5,196.47,66.69,282.22,74.22C1838.65,340.31,1881,342.7,1920,348.54Z"/><path class="cls-2" d="M1904.84,510.23c-2.17,2.41-33.12,30.38-84.82,76.77H0V408.26l3.68-.55c116.59-17.82,209.78-75.33,292.41-141.77C504.53,98.38,645.86-125.93,926.43,87a881.16,881.16,0,0,0,73.31,50.15c197.64,120.74,368.19,109.38,511.69,108,109.93-1.07,204,3.67,282.22,78.12C1835.18,362.71,1872.24,421.88,1904.84,510.23Z"/></g></g></svg>