<svg xmlns="http://www.w3.org/2000/svg" viewBox="0 0 960 799"><defs><style>.cls-1{fill:blue;}</style></defs><g id="Layer_2" data-name="Layer 2"><g id="Layer_2-2" data-name="Layer 2"><path class="cls-1" d="M960,0V758.87c-.36.38-.72.76-1.09,1.13-23.79,24.49-53.37,39-85.41,39s-61.62-14.51-85.41-39c-29.06-29.89-49.52-74.67-55.37-126.08A277.64,277.64,0,0,1,506,751q-13.15,0-26-1.21C361.21,738.78,264.09,653,236.13,540A278.63,278.63,0,0,1,228,473q0-8.56.51-17H228C102.08,456,0,353.92,0,228S102.08,0,228,0Z"/></g></g></svg>